<svg xmlns="http://www.w3.org/2000/svg" viewBox="0 0 48 48" fill="none" stroke-linecap="round" stroke-linejoin="round">
  <!-- корпус геймпада -->
  <path d="M10 18.5 C10 15.2 12.2 13.5 15.5 13.5 H32.5 C35.8 13.5 38 15.2 38 18.5 V25.5 C38 29.8 35 32.8 31 31.7 L27.2 30.7 C25.6 30.3 22.4 30.3 20.8 30.7 L17 31.7 C13 32.8 10 29.8 10 25.5 Z" stroke="#2B2B2B" stroke-width="3"/>
  <!-- крестовина -->
  <path d="M15 21.5 V26.5 M12.5 24 H17.5" stroke="#2EB5A5" stroke-width="2.6"/>
  <!-- кнопки AB -->
  <circle cx="29" cy="21.5" r="2" fill="#F2D492" stroke="none"/>
  <circle cx="32.5" cy="25" r="2" fill="#2EB5A5" stroke="none"/>
  <circle cx="25.5" cy="25" r="1.3" fill="#6E6E6E" stroke="none"/>
  <!-- фирменная россыпь -->
  <rect x="22" y="6" width="3" height="3" fill="#FFD95A" stroke="none"/>
  <rect x="8" y="35" width="2.6" height="2.6" fill="#FF6B6B" stroke="none"/>
  <rect x="38" y="35" width="2.6" height="2.6" fill="#2B2B2B" stroke="none" opacity="0.85"/>
</svg>
